<svg width="512" height="512" xmlns="http://www.w3.org/2000/svg">

 <g>
  <title>background</title>
  <rect fill="none" id="canvas_background" height="402" width="582" y="-1" x="-1"/>
 </g>
 <g>
  <title>Layer 1</title>
  <path fill="#374e63" id="svg_2" d="m484.386992,285.5c1.4,-4.1 2.6,-8.3 3.4,-12.6c5.8,-31.6 -8.9,-66.6 -33,-81.9c-17,-10.8 -36.3,-14.5 -54.6,-21.3c-17.8,-6.6 -34.4,-18.1 -49,-31.6c-12.3,-11.4 -23.4,-24.7 -36.3,-35.3c-56.4,-46.1 -137.7,-27.6 -175.8,38.8c-12.4,21.7 -19.8,46.9 -32,68.8c-28,50.2 -88.1,86.3 -88.5,153.2c-0.2,35.4 19.3,73.3 40.5,98.6l385,0c12,-28.2 -3.2,-62.5 1.9,-93.4c5.4,-31.8 28.4,-54.5 38.4,-83.3z" class="st0"/>
  <path fill="#617586" id="svg_5" d="m276.904673,311.2l-158.4,0c-12.3,0 -22.4,-10 -22.4,-22.4l0,-147.3c0,-12.3 10,-22.4 22.4,-22.4l158.3,0c12.3,0 22.4,10 22.4,22.4l0,147.3c0,12.3 -10,22.4 -22.3,22.4zm-158.4,-188.1c-10.1,0 -18.4,8.2 -18.4,18.4l0,147.3c0,10.1 8.2,18.4 18.4,18.4l158.3,0c10.1,0 18.4,-8.2 18.4,-18.4l0,-147.3c0,-10.1 -8.2,-18.4 -18.4,-18.4l-158.3,0z" class="st1"/>
  <path fill="#617586" id="svg_7" d="m264.1,160.5l-164.4,0c-1.1,0 -2,-0.9 -2,-2c0,-1.1 0.9,-2 2,-2l164.5,0c1.1,0 2,0.9 2,2c-0.1,1.1 -1,2 -2.1,2z" class="st1"/>
  <path fill="#faaf3d" id="svg_9" d="m127,139.5c0,2.5 -2,4.5 -4.5,4.5c-2.5,0 -4.5,-2 -4.5,-4.5c0,-2.5 2,-4.5 4.5,-4.5c2.5,0 4.5,2 4.5,4.5z" class="st2"/>
  <circle fill="#faaf3d" id="svg_11" r="4.5" cy="139.5" cx="140.3" class="st2"/>
  <circle fill="#faaf3d" id="svg_13" r="4.5" cy="139.5" cx="158.1" class="st2"/>
  <path fill="#617586" id="svg_15" d="m413.5,278l-72.2,0c-14.8,0 -26.8,-12 -26.8,-26.8l0,-72.2c0,-14.8 12,-26.8 26.8,-26.8l72.2,0c14.8,0 26.8,12 26.8,26.8l0,72.2c0,14.8 -12,26.8 -26.8,26.8z" class="st3"/>
  <path fill="#ffffff" id="svg_17" d="m367.6,222.7l-18.5,0l-6,15l-6.3,0l18.5,-44.9l6,0l18.5,44.9l-6.3,0l-5.9,-15zm-2.1,-5.2l-7.1,-17.9l-7.1,17.9l14.2,0z" class="st4"/>
  <path fill="#ffffff" id="svg_18" d="m381.8,221.4c0,-10.2 6.4,-17 16,-17c4.5,0 9.1,2.5 11.7,6.2l0,-5.6l5.2,0l0,32.8l-5.2,0l0,-5.5c-2.6,3.7 -7.2,6.2 -11.7,6.2c-9.6,-0.1 -16,-6.9 -16,-17.1zm27.6,0c0,-7.5 -4.5,-12.4 -11.1,-12.4c-6.7,0 -11.3,5 -11.3,12.4c0,7.5 4.5,12.4 11.3,12.4c6.7,0 11.1,-5 11.1,-12.4z" class="st4"/>
  <path fill="#fba5a6" id="svg_20" d="m176.6,205.7c0,0 6,10.4 7.7,12.9c1.7,2.5 -5.4,4.2 -5.4,4.2l-2.3,-17.1z" class="st5"/>
  <path fill="#617586" id="svg_21" d="m114.213008,413.7l41.8,-145.6l-21.9,1.4c-20.5,1.3 -38.2,14.7 -45.1,34l-32.5,91.7c-1.6,4.6 -2.1,9.2 -1.6,13.6c-0.1,1.6 -0.1,3.3 0,5l2.5,47.8l57.9,0l-4.6,-40.3c1.6,-2.3 2.7,-4.8 3.5,-7.6z" class="st6"/>
  <path fill="#617586" id="svg_22" d="m89.7,416.8l21.9,-118.2c8.7,-24.3 32.1,-40.1 57.8,-39.2l0,0c26.3,0.9 41.4,19 47.9,44.5l13.8,93.6c0.3,2.3 -0.8,4.5 -2.8,5.5l0,0c-0.7,0.4 -1.1,1.2 -1,2l1.7,11.8l-139.3,0z" class="st7"/>
  <polygon fill="#ffffff" id="svg_23" points="93.1,400.8 90.3,416.8 228.8,416.8 226.7,400.8    " class="st4"/>
  <path fill="#fba5a6" id="svg_24" d="m163.4,269.1c-5.3,2.4 -21.1,11.1 -26.1,0.3c-0.3,-0.7 -0.5,-1.5 -0.5,-2.2l5.6,-48.3l24.7,0.3l-0.6,45.2c0,1.9 -1.3,3.8 -3.1,4.7z" class="st5"/>
  <path fill="#fba5a6" id="svg_25" d="m166.2,190.1c3.2,0.7 5.9,2.8 7.3,5.7c6.2,13 20.7,50 -11.8,51.5c0,0 -22.5,0.7 -19.1,-28.3c0.1,0 -13.2,-36.5 23.6,-28.9z" class="st5"/>
  <path fill="#231f20" id="svg_26" d="m139.5,244c0,0 24.8,-5 22.7,-41c0,0 17,1.5 22.1,-9.1c0.3,-0.7 1.2,-3.2 2.2,-5.9c1.9,-5.4 -1.1,-11.2 -6.5,-12.9c-20.9,-6.6 -50.9,-7.6 -49.7,12.4c0,-0.1 -32.3,10.3 9.2,56.5z" class="st8"/>
  <ellipse fill="#fba5a6" id="svg_27" transform="matrix(0.8492,-0.5281,0.5281,0.8492,-92.5499,115.1744) " ry="9.8" rx="7.1" cy="219.6" cx="155.4" class="st5"/>
  <path fill="#231f20" id="svg_29" d="m155.4,226.2c0,0 -0.1,0 -0.1,0c-1.7,-0.6 -3.3,-1.9 -4.4,-3.7c-2.1,-3.4 -1.8,-7.5 0.7,-9c1.6,-1 3.8,-0.8 5.8,0.6c0.2,0.1 0.2,0.4 0.1,0.5c-0.1,0.2 -0.4,0.2 -0.5,0.1c-1.8,-1.2 -3.6,-1.4 -5,-0.6c-2.2,1.3 -2.4,4.9 -0.5,8c1,1.6 2.5,2.9 4,3.4c0.2,0.1 0.3,0.3 0.2,0.5c0,0.1 -0.2,0.2 -0.3,0.2z" class="st8"/>
  <polygon fill="#231f20" id="svg_30" points="89.8,416.8 82.4,461.6 231.1,461.6 229,416.8    " class="st8"/>
  <path fill="#fba5a6" id="svg_31" d="m333.3,297c0,0 12.3,-3 25.7,-17.1l-44.2,-14.1l0.2,-14.8l-9.5,5.2c-4.7,2.6 -8.6,6.5 -11.2,11.3l-7.1,20.2l46.1,9.3z" class="st5"/>
  <path fill="#fba5a6" id="svg_32" d="m241,367.7c-0.3,-7.5 2.8,-14.4 6.2,-21.1c6.2,-12 20.6,-36.1 35.9,-54.2c13.9,-16.4 28,-28.2 46.6,-16.6c11.1,6.9 3.4,19.3 -6.3,36.4c-13.3,23.3 -33.6,52.7 -45,65.8c-5.8,6.7 -14.7,10.1 -23.3,8.3c-6.9,-1.6 -13.5,-6.3 -14.1,-18.6z" class="st5"/>
  <path fill="#617586" id="svg_33" d="m324.2,311.1c-1,-15.9 -15.6,-23.6 -33.1,-22c-1.9,0.2 -5.5,1.8 -7.4,2.5c-1.8,0.6 -5.2,1.8 -6.3,3c-10,11.9 -17.7,25.3 -23.6,36.5c-14.7,-14.7 -33.8,-29.9 -45.8,-49.6c-7,-11.5 -33.5,30.6 -33.5,30.6c19.8,51.2 61.6,67.1 72.8,72.8c2.4,1.2 5,2.1 7.6,2.6c0,0 0.1,0 0.1,0c8.6,1.8 17.8,-1.2 23.5,-7.9c11.1,-12.8 32.8,-32.8 44.6,-56.8c3.1,-6.3 1.3,-8.6 1.1,-11.7z" class="st9"/>
  <path fill="#231f20" id="svg_35" d="m260.1,388.4c-1.7,0 -3.4,-0.2 -5.2,-0.5l0,-0.4l-0.1,0.4c-2.6,-0.5 -5.3,-1.4 -7.7,-2.6c-1,-0.5 -2.2,-1.1 -3.6,-1.7c-12.4,-5.9 -38.2,-18.2 -57.4,-47.7c-0.1,-0.2 -0.1,-0.4 0.1,-0.5c0.2,-0.1 0.4,-0.1 0.5,0.1c19.1,29.3 44.7,41.5 57.1,47.4c1.4,0.7 2.6,1.2 3.6,1.7c2.4,1.2 5,2.1 7.5,2.6l0.1,0c8.6,1.8 17.5,-1.2 23.2,-7.8c0.1,-0.2 0.4,-0.2 0.5,0c0.2,0.1 0.2,0.4 0,0.5c-4.6,5.4 -11.5,8.5 -18.6,8.5z" class="st8"/>
  <path fill="#ffffff" id="svg_36" d="m287.8,286.8c-1.4,1.5 -2.7,3.1 -4.1,4.8c13.4,-5 37.1,7.4 40.5,19.5c0.8,-1.4 1.6,-2.8 2.3,-4.2c7.1,-13.2 -27.4,-32.4 -38.7,-20.1z" class="st4"/>
  <path fill="#fba5a6" id="svg_37" d="m376,253.8c-1.8,-1.1 -4,-0.8 -5.6,0.6l0,0c-7.7,10 -16.4,18.5 -27.8,24l-12.6,5.3l22.6,1.2l0.3,-0.2c8.7,-6.5 17.5,-12.8 23,-22.1l0.9,-1.6c2.2,-2.2 1.8,-5.7 -0.8,-7.2l0,0z" class="st5"/>
  <path fill="#fba5a6" id="svg_38" d="m369.8,240.1c-2,-1.1 -4.5,-0.8 -6.1,0.8l0,0c-8.1,11.3 -16.8,21 -29,27.5l-14,6.1l23.1,6.3l0.3,-0.2c9.2,-7.5 20.4,-20.5 26.1,-30.9l1,-1.8c2.1,-2.4 1.4,-6.2 -1.4,-7.8l0,0z" class="st5"/>
  <path fill="#fba5a6" id="svg_39" d="m343.1,227.4c-2.1,-1 -4.5,-0.5 -6,1.3l0,0c-7.3,11.8 -19,26.9 -30.8,34.3l-3.6,2.4l8.2,11.4l15.4,-12.1c8.7,-8.1 12.8,-16.8 17.7,-27.6l0.8,-1.8c2.2,-2.7 1.3,-6.5 -1.7,-7.9l0,0z" class="st5"/>
  <path fill="#fba5a6" id="svg_40" d="m359.6,227.1c-2.1,-0.9 -4.5,-0.3 -5.9,1.5l0,0c-6.8,12.1 -16.6,25.8 -28,33.6l-12.8,12.5l18.7,0.4l10,-8.7c8.4,-8.5 14.9,-18.7 19.3,-29.7l0.8,-1.9c1.9,-2.7 0.9,-6.4 -2.1,-7.7l0,0z" class="st5"/>
  <path fill="#111c3a" opacity="0.3" id="svg_41" d="m228.2,403c1.7,-0.9 2.8,-2.7 2.9,-4.6l-3.6,-23.8c0,0 -20,-9.7 -39.8,-37.1c0,0 -5.6,46 32.8,79.4c1.6,1.4 8.4,0 8.4,0l-1.7,-11.8c-0.1,-0.9 0.3,-1.7 1,-2.1z" class="st10"/>
  <path fill="#231f20" id="svg_42" d="m182.1,221.3c-0.3,0 -0.7,0.1 -1,0.4c-0.5,0.4 -0.6,1.1 -0.9,1.6c-1.1,2.2 -1.8,4.8 -4.2,6.1c-1.7,0.9 -3.9,0.6 -5.6,-0.4c-1.7,-0.9 -3,-2.5 -4.1,-4.1c-1,-1.6 -1.9,-3.3 -2.5,-5c-0.4,-1.1 -0.6,-2.2 -1,-3.3c-0.1,-0.3 -0.2,-0.5 -0.2,-0.8c-0.1,-0.9 -0.2,-1.7 -0.2,-2.6c-0.1,-1.7 0,-3.5 0.1,-5.2c0.2,-1.4 0.4,-3 -0.2,-4.3c-0.6,-1.3 -2.3,-2.3 -3.5,-1.6c-1.3,0.8 -1.1,2.6 -0.9,4.1c1.1,6.1 1.8,12.4 2,18.6c0.1,1.7 0.1,3.4 -0.3,5c-0.5,2.1 -1.6,4.1 -2.6,6.1c-0.8,1.7 -1.7,3.5 -2.5,5.2c-0.4,0.8 -0.8,1.6 -0.9,2.5c-0.3,2.1 1.1,4.1 2.8,5.2c1.8,1.1 3.8,1.5 5.9,1.9c2.8,0.5 5.6,1 8.4,0.8c2.3,-0.2 4.5,-0.8 6.4,-2.2c2,-1.5 2.9,-3.9 3.7,-6.2c0.3,-0.8 0.5,-1.7 0.7,-2.5c0.5,-1.8 0.9,-3.7 1.3,-5.6c0.4,-1.9 0.6,-3.8 0.7,-5.7c0,-1.4 0,-2.7 -0.1,-4.1c-0.1,-0.7 -0.2,-1.3 -0.3,-2c0.1,-0.7 0.1,-1.7 -1,-1.9z" class="st8"/>
  <path fill="#ffffff" id="svg_44" d="m183.5,295.6c8.7,9.5 17.7,18.7 26.9,27.6c9.2,9 18.7,17.7 28.4,26.1c4.8,4.2 9.7,8.3 14.6,12.4c2.7,2.3 5.6,4.4 9.3,4.7c3.4,0.3 6.4,-1.8 8.6,-4.2c2,-2.2 3.8,-4.5 5.7,-6.9c2,-2.5 4,-5.1 5.9,-7.7c3.6,-4.9 7.1,-10 10.3,-15.2c6.5,-10.3 12.1,-21.1 17,-32.2c0.7,-1.5 1.3,-3.1 2,-4.7c0.3,-0.7 0,-1.8 -0.3,-2.4c-0.4,-0.6 -1.1,-1.3 -1.8,-1.4c-0.8,-0.2 -1.7,-0.1 -2.4,0.3c-0.7,0.5 -1.1,1.1 -1.4,1.8c-0.1,0.2 -0.2,0.4 -0.3,0.6c-0.2,0.5 0,-0.1 0.1,-0.1c-0.1,0.3 -0.3,0.7 -0.4,1c-0.3,0.7 -0.6,1.5 -1,2.2c-0.6,1.3 -1.2,2.7 -1.8,4c-1.3,2.7 -2.6,5.4 -3.9,8.1c-2.7,5.3 -5.6,10.6 -8.7,15.7c-3.1,5.1 -6.4,10.1 -9.8,15c-1.7,2.4 -3.5,4.9 -5.3,7.2c-0.2,0.3 -0.4,0.6 -0.7,0.9c-0.1,0.1 -0.2,0.2 -0.3,0.3c0.5,-0.7 0,-0.1 -0.1,0.1c-0.4,0.6 -0.9,1.1 -1.4,1.7c-1,1.2 -1.9,2.4 -2.9,3.6c-0.9,1.1 -1.8,2.2 -2.7,3.2c-0.4,0.5 -0.9,1 -1.3,1.4c-0.2,0.2 -0.6,0.4 -0.7,0.6c0.1,-0.3 0.5,-0.3 0.2,-0.1c-0.2,0.1 -0.4,0.3 -0.6,0.4c-0.1,0.1 -0.2,0.1 -0.3,0.2c-0.1,0 -0.6,0.4 -0.1,0.1c0.4,-0.3 0,0 -0.2,0c-0.2,0 -0.3,0.1 -0.5,0.1c0,0 -0.1,0 -0.1,0c-0.3,0.1 -0.3,0 0.2,0c-0.1,0 -0.3,0 -0.4,0c-0.2,0 -0.4,0 -0.6,0c-0.7,0 0.7,0.2 0,0c-0.3,-0.1 -0.6,-0.2 -1,-0.3c-0.1,0 -0.7,-0.3 -0.2,-0.1c0.5,0.2 -0.1,-0.1 -0.2,-0.1c-0.7,-0.3 -1.3,-0.7 -1.9,-1.1c-0.3,-0.2 -0.6,-0.4 -0.9,-0.6c-0.4,-0.3 0.6,0.5 0,0c-0.1,-0.1 -0.3,-0.2 -0.4,-0.3c-0.6,-0.5 -1.2,-1 -1.8,-1.5c-1.2,-1 -2.4,-2 -3.6,-3c-2.4,-2 -4.8,-4.1 -7.2,-6.1c-9.5,-8.2 -18.8,-16.7 -27.9,-25.4c-9.1,-8.8 -18,-17.8 -26.6,-27c-1.1,-1.1 -2.1,-2.3 -3.1,-3.4c-1.1,-1.2 -3.3,-1.2 -4.4,0c-1.2,1.4 -1.2,3.2 0,4.5l0,0z" class="st4"/>
  <path fill="#617586" id="svg_45" d="m197.9,268.9c0.5,-6.1 -3,-11.6 -8,-12.6c-18.4,-3.8 -63.5,-11.4 -74.5,3.6c-12.8,17.6 2.2,110.6 39.8,80.3c34.3,-27.7 41.5,-56.2 42.7,-71.3z" class="st11"/>
  <path fill="#ffffff" id="svg_46" d="m148.8,251c-0.7,1.8 -1.4,3.5 -2.1,5.3c-2.8,7.7 -5,15.5 -6.5,23.6c-1.6,8.4 -2.5,16.9 -2.9,25.5c-0.4,8.4 -0.3,16.8 0.3,25.1c0.3,5.2 0.8,10.4 1.4,15.6c1.9,0.3 4,0.2 6.1,-0.4c-0.5,-4.1 -0.8,-8.2 -1.1,-12.3c-0.6,-8.3 -0.8,-16.6 -0.6,-24.9c0.1,-4.1 0.4,-8.2 0.8,-12.3c0.2,-2 0.4,-4.1 0.7,-6.1c0,0 0,-0.1 0,-0.1c0,0 0,0 0,0c0,-0.3 0.1,-0.5 0.1,-0.8c0.1,-0.5 0.1,-1 0.2,-1.5c0.2,-1 0.3,-2.1 0.5,-3.1c1.4,-8 3.4,-15.9 6,-23.6c0.7,-1.9 1.3,-3.8 2.1,-5.6c0.4,-0.9 0.8,-1.9 1.1,-2.8c0,0 0.1,-0.2 0.1,-0.3c0,-0.1 0,-0.1 0.1,-0.1c0.1,-0.1 0.1,-0.3 0.2,-0.4c0.1,-0.1 0.1,-0.3 0.2,-0.4c-2.3,-0.3 -4.5,-0.4 -6.7,-0.4z" class="st4"/>
  <path fill="#231f20" id="svg_48" d="m250.8,339.3c0,0 -0.1,0 -0.1,0c-0.2,-0.1 -0.3,-0.3 -0.2,-0.5c6.6,-19.7 26.5,-44.2 26.7,-44.5c0.1,-0.2 0.4,-0.2 0.5,-0.1c0.2,0.1 0.2,0.4 0.1,0.5c-0.2,0.2 -20,24.7 -26.5,44.2c-0.2,0.3 -0.3,0.4 -0.5,0.4z" class="st8"/>
  <path fill="#231f20" id="svg_50" d="m82.4,462c0,0 0,0 0,0c-0.3,0 -0.4,-0.2 -0.4,-0.4l20.8,-118c0,-0.2 0.2,-0.3 0.4,-0.3c0.2,0 0.3,0.2 0.3,0.4l-20.8,118c0.1,0.2 -0.1,0.3 -0.3,0.3z" class="st8"/>
  <path fill="#374e63" id="svg_52" d="m140.9,346.5c-4.3,0 -8.4,-1.8 -12.2,-5.3c-18.1,-17.2 -22.7,-69.2 -13.6,-81.6c4.2,-5.8 13.9,-8.9 28.7,-9.1c0,0 0,0 0,0c0.2,0 0.4,0.2 0.4,0.4c0,0.2 -0.2,0.4 -0.4,0.4c-14.6,0.2 -24,3.2 -28.1,8.8c-8.9,12.2 -4.3,63.6 13.6,80.6c7.5,7.2 16.2,6.9 25.7,-0.8c0.2,-0.1 0.4,-0.1 0.5,0.1c0.1,0.2 0.1,0.4 -0.1,0.5c-4.9,4 -9.8,6 -14.5,6z" class="st8"/>
  <path fill="#231f20" id="svg_54" d="m173.1,211.1c-0.1,0 -0.2,0 -0.2,-0.1c-0.2,-0.1 -0.2,-0.4 -0.1,-0.5c0.1,-0.1 2.7,-3.4 5.4,-3.4c0,0 0,0 0,0c0.2,0 0.4,0.2 0.4,0.4c0,0.2 -0.2,0.4 -0.4,0.4c-2.4,0 -4.8,3.1 -4.8,3.1c-0.1,0 -0.2,0.1 -0.3,0.1z" class="st8"/>
  <path fill="#231f20" id="svg_55" d="m178.5,210.7c0,0.7 -0.6,1.3 -1.3,1.3c-0.7,0 -1.3,-0.6 -1.3,-1.3c0,-0.7 0.6,-1.3 1.3,-1.3c0.7,0 1.3,0.6 1.3,1.3z" class="st8"/>
  <path fill="#fb9697" id="svg_56" d="m178.5,222.8c0,2.6 -2.1,4.7 -4.7,4.7c-2.6,0 -4.7,-2.1 -4.7,-4.7c0,-2.6 2.1,-4.7 4.7,-4.7c2.6,0 4.7,2.1 4.7,4.7z" class="st12"/>
  <path fill="#fa8788" id="svg_58" d="m332.7,258c-0.1,0 -0.2,0 -0.2,-0.1c-0.2,-0.1 -0.2,-0.4 -0.1,-0.5c4.6,-5.9 7.6,-12.3 11.4,-20.6l0.8,-1.8c1.5,-3.6 1,-6 -1.7,-7.2c-1.9,-0.9 -4.2,-0.4 -5.6,1.2c-6.3,10.2 -14.2,20.1 -21.5,27c-0.2,0.1 -0.4,0.1 -0.5,0c-0.1,-0.2 -0.1,-0.4 0,-0.5c7.3,-6.8 15.1,-16.6 21.4,-26.8c1.6,-1.9 4.3,-2.4 6.5,-1.4c2.1,1 4.2,3.2 2,8.2l-0.8,1.8c-3.8,8.4 -6.9,14.8 -11.5,20.8c0,-0.1 -0.1,-0.1 -0.2,-0.1z" class="st13"/>
  <path fill="#fa8788" id="svg_60" d="m342.8,265c-0.1,0 -0.2,0 -0.3,-0.1c-0.1,-0.2 -0.1,-0.4 0,-0.5c2.3,-2.2 4.4,-4.4 6.3,-6.9c4.6,-5.9 7.6,-12.3 11.4,-20.6l0.8,-1.8c1.5,-3.6 1,-6 -1.7,-7.2c-1.9,-0.9 -4.2,-0.4 -5.6,1.2c-5,8.1 -10.9,17.4 -17.8,24.8c-0.1,0.2 -0.4,0.2 -0.5,0c-0.2,-0.1 -0.2,-0.4 0,-0.5c6.9,-7.4 12.8,-16.7 17.8,-24.8c1.6,-1.9 4.3,-2.4 6.5,-1.4c2.1,1 4.2,3.2 2,8.2l-0.8,1.8c-3.8,8.4 -6.9,14.8 -11.5,20.8c-1.9,2.5 -4,4.8 -6.3,7c-0.1,-0.1 -0.2,0 -0.3,0z" class="st13"/>
  <path fill="#fa8788" id="svg_62" d="m349.6,275.2c-0.1,0 -0.2,-0.1 -0.3,-0.1c-0.1,-0.2 -0.1,-0.4 0.1,-0.5c2.5,-1.9 4.8,-4 6.9,-6.2c4.9,-5.3 8.8,-10.7 13.5,-18.7l1,-1.7c1.9,-3.4 1.6,-5.8 -1,-7.4c-1.8,-1.1 -4.1,-0.8 -5.6,0.6c-5.8,7.6 -12.6,16.2 -20.2,23c-0.2,0.1 -0.4,0.1 -0.5,0c-0.1,-0.2 -0.1,-0.4 0,-0.5c7.6,-6.7 14.4,-15.3 20.1,-22.9c1.8,-1.7 4.5,-2 6.6,-0.8c2,1.2 3.8,3.6 1.2,8.4l-1,1.8c-4.7,8.1 -8.6,13.5 -13.6,18.8c-2.2,2.3 -4.4,4.4 -7,6.3c0,-0.1 -0.1,-0.1 -0.2,-0.1z" class="st13"/>
  <path fill="#fa8788" id="svg_64" d="m353,285c-0.1,0 -0.2,-0.1 -0.3,-0.1c-0.1,-0.2 -0.1,-0.4 0.1,-0.5l2.1,-1.6c7.8,-5.8 15.8,-11.9 20.8,-20.5l0.9,-1.6c1.8,-3.1 1.5,-5.2 -0.8,-6.7c-1.6,-1 -3.7,-0.8 -5.1,0.5c-5.8,7.5 -11.6,13.4 -17.7,17.9c-0.2,0.1 -0.4,0.1 -0.5,-0.1c-0.1,-0.2 -0.1,-0.4 0.1,-0.5c6.1,-4.5 11.9,-10.3 17.6,-17.8c1.7,-1.6 4.1,-1.8 6.1,-0.7c2.7,1.6 3.1,4.2 1.1,7.7l-0.9,1.6c-5.1,8.7 -13.2,14.8 -21,20.7l-2.1,1.6c-0.2,0.1 -0.3,0.1 -0.4,0.1z" class="st13"/>
  <path fill="#231f20" id="svg_66" d="m495.1,463.7l-478.2,0c-0.8,0 -1.5,-0.7 -1.5,-1.5c0,-0.8 0.7,-1.5 1.5,-1.5l478.3,0c0.8,0 1.5,0.7 1.5,1.5c-0.1,0.8 -0.7,1.5 -1.6,1.5z" class="st8"/>
  <path fill="#617586" id="svg_69" d="m439.695327,451.6l-112.9,0c-11.5,0 -20.9,-9.4 -20.9,-20.9l0,-112.9c0,-11.5 9.4,-20.9 20.9,-20.9l112.9,0c11.5,0 20.9,9.4 20.9,20.9l0,112.9c0.1,11.5 -9.3,20.9 -20.9,20.9zm-112.9,-150.8c-9.3,0 -16.9,7.6 -16.9,16.9l0,112.9c0,9.3 7.6,16.9 16.9,16.9l112.9,0c9.3,0 16.9,-7.6 16.9,-16.9l0,-112.8c0,-9.3 -7.6,-16.9 -16.9,-16.9l-112.9,0l0,-0.1z" class="st1"/>
  <path fill="#617586" id="svg_70" d="m435.9,333.8l-110.8,0c-2.4,0 -4.3,-1.9 -4.3,-4.3l0,-8.3c0,-2.4 1.9,-4.3 4.3,-4.3l110.8,0c2.4,0 4.3,1.9 4.3,4.3l0,8.3c0.1,2.3 -1.9,4.3 -4.3,4.3z" class="st8"/>
  <path fill="#617586" id="svg_71" d="m435.9,363.2l-110.8,0c-2.4,0 -4.3,-1.9 -4.3,-4.3l0,-8.3c0,-2.4 1.9,-4.3 4.3,-4.3l110.8,0c2.4,0 4.3,1.9 4.3,4.3l0,8.3c0.1,2.3 -1.9,4.3 -4.3,4.3z" class="st8"/>
  <path fill="#617586" id="svg_72" d="m382.7,392.6l-57.6,0c-2.4,0 -4.3,-1.9 -4.3,-4.3l0,-8.3c0,-2.4 1.9,-4.3 4.3,-4.3l57.6,0c2.4,0 4.3,1.9 4.3,4.3l0,8.3c0,2.3 -1.9,4.3 -4.3,4.3z" class="st8"/>
  <path fill="#000000" id="svg_73" d="m361.1,433.8l-36,0c-2.4,0 -4.3,-1.9 -4.3,-4.3l0,-8.3c0,-2.4 1.9,-4.3 4.3,-4.3l36,0c2.4,0 4.3,1.9 4.3,4.3l0,8.3c0.1,2.3 -1.9,4.3 -4.3,4.3z" class="st14"/>
  <path fill="#ff5722" id="svg_74" d="m414,433.8l-36,0c-2.4,0 -4.3,-1.9 -4.3,-4.3l0,-8.3c0,-2.4 1.9,-4.3 4.3,-4.3l36,0c2.4,0 4.3,1.9 4.3,4.3l0,8.3c0.1,2.3 -1.9,4.3 -4.3,4.3z" class="st15"/>
  <path fill="#231f20" id="XMLID_71_" d="m253.9,241.2c1.5,0.3 6.1,3.8 7.2,0.9c0,0 2.5,-6.2 2.5,-6.2c0.4,-1 -0.1,-2.1 -1,-2.5l-3.7,-1.5c-1.4,-0.6 -1.4,-3.6 0,-4.3c1.3,-0.8 5.9,-1.5 4.8,-4.1c-1,-1.5 -2.1,-8.5 -5,-7.1c-2.2,0.8 -4.7,3 -6.4,0.3c-1.4,-1 0.9,-4.3 1.2,-5.6c0.4,-1 -0.1,-2.1 -1,-2.5l-6.1,-2.5c-1,-0.4 -2.1,0.1 -2.5,1.1c-0.7,1.2 -1.3,5 -3.1,4.8c-3.1,0.8 -3.3,-2.6 -4.3,-4.7c-1.1,-3 -6.8,1.3 -8.5,1.6c-2.6,1.1 0.1,4.7 0.5,6.3c0.5,1.5 -1.6,3.6 -3,3.1c0,0 -3.8,-1.5 -3.8,-1.5c-1,-0.4 -2.1,0.1 -2.5,1.1l-2.5,6.2c-1.1,2.6 3.4,3.2 4.7,4c1.1,0.4 0.9,1.7 1,2.8c0,3 -7,2 -5.7,5.7c0,0 2.5,6.1 2.5,6.1c1,2.6 4.6,-0.1 6.2,-0.6c1.4,-0.5 3.6,1.5 3,3c-0.4,1.6 -3.1,5.4 -0.5,6.3c0,0 6.1,2.5 6.1,2.5c2.5,1.1 3.2,-3.3 4,-4.9c0.7,-1.4 3.6,-1.4 4.3,-0.1c0.8,1.4 1.5,6 4,4.8c0,0 6.1,-2.6 6.1,-2.6c1,-0.4 1.4,-1.5 1,-2.5c-1.3,-3.9 -3,-4.2 0.5,-7.4zm-21.5,-16.3c6.6,-10.3 22.1,-0.6 15.6,10.1c-6.6,10.3 -22.1,0.6 -15.6,-10.1z" class="st8"/>
  <path fill="#fe5e31" id="svg_75" d="m473.9,278.7c0,2.8 -2.3,5.1 -5.1,5.1c-2.8,0 -5.1,-2.3 -5.1,-5.1s2.3,-5.1 5.1,-5.1c2.9,0.1 5.1,2.3 5.1,5.1z" class="st16"/>
  <path fill="#faaf3d" id="svg_76" d="m320.8,121.3l-8,13.9c-1,1.7 0.2,3.8 2.2,3.8l16,0c1.9,0 3.2,-2.1 2.2,-3.8l-8,-13.9c-1,-1.6 -3.4,-1.6 -4.4,0l-8,13.9c-1,1.7 0.2,3.8 2.2,3.8l16,0c1.9,0 3.2,-2.1 2.2,-3.8l-8,-13.9c-1,-1.6 -3.4,-1.6 -4.4,0z" class="st2"/>
  <path fill="#4361ee" id="svg_77" d="m51.4,197l2.1,15.9c0.3,1.9 2.5,2.9 4,1.7l12.7,-9.7c1.5,-1.2 1.2,-3.6 -0.6,-4.3l-14.8,-6.1c-1.7,-0.9 -3.7,0.6 -3.4,2.5l2.1,15.9c0.3,1.9 2.5,2.9 4,1.7l12.7,-9.7c1.5,-1.2 1.2,-3.6 -0.6,-4.3l-14.8,-6.1c-1.7,-0.9 -3.7,0.6 -3.4,2.5z" class="st3"/>
  <polygon fill="#ff5722" id="svg_78" points="80.4,280.9 72.7,280.9 68.9,287.5 72.7,294.1 80.4,294.1 84.2,287.5   " class="st15"/>
  <polygon fill="#4361ee" id="svg_79" points="390.9,91.5 383.2,91.5 379.4,98.1 383.2,104.8 390.9,104.8 394.7,98.1   " class="st3"/>
  <polygon fill="#faaf3d" id="svg_80" points="279.6,420.2 271.9,420.2 268.1,426.8 271.9,433.4 279.6,433.4 283.4,426.8   " class="st2"/>
 </g>
</svg>